<svg width="18" height="18" viewBox="0 0 18 18" fill="none" xmlns="http://www.w3.org/2000/svg">
<g id="twemoji:flag-brazil">
<path id="Vector" d="M18 13.5C18 14.0304 17.7893 14.5391 17.4142 14.9142C17.0391 15.2893 16.5304 15.5 16 15.5H2C1.46957 15.5 0.960859 15.2893 0.585786 14.9142C0.210714 14.5391 0 14.0304 0 13.5V4.5C0 3.96957 0.210714 3.46086 0.585786 3.08579C0.960859 2.71071 1.46957 2.5 2 2.5H16C16.5304 2.5 17.0391 2.71071 17.4142 3.08579C17.7893 3.46086 18 3.96957 18 4.5V13.5Z" fill="#009B3A"/>
<path id="Vector_2" d="M16.3637 9L8.99974 14.562L1.63574 9L8.99974 3.4375L16.3637 9Z" fill="#FEDF01"/>
<path id="Vector_3" d="M8.98779 12.1909C10.7711 12.1909 12.2168 10.7452 12.2168 8.96191C12.2168 7.17858 10.7711 5.73291 8.98779 5.73291C7.20446 5.73291 5.75879 7.17858 5.75879 8.96191C5.75879 10.7452 7.20446 12.1909 8.98779 12.1909Z" fill="#002776"/>
<path id="Vector_4" d="M6.13873 7.44341C5.97098 7.75942 5.8574 8.10133 5.80273 8.45491C7.80023 8.30991 10.5112 9.40041 11.6747 10.7524C11.8757 10.4504 12.0247 10.1124 12.1162 9.75041C10.6802 8.34641 8.15773 7.43541 6.13873 7.44341Z" fill="#CBE9D4"/>
<path id="Vector_5" d="M6 9.11646H6.5V9.61646H6V9.11646ZM6.5 10.1165H7V10.6165H6.5V10.1165Z" fill="#88C9F9"/>
<path id="Vector_6" d="M7.5 9.11646H8V9.61646H7.5V9.11646ZM8.5 9.61646H9V10.1165H8.5V9.61646ZM10.5 10.6165H11V11.1165H10.5V10.6165ZM9 11.1165H9.5V11.6165H9V11.1165ZM10.5 8.11646H11V8.61646H10.5V8.11646Z" fill="#55ACEE"/>
<path id="Vector_7" d="M9.5 10.1165H10V10.6165H9.5V10.1165Z" fill="#3B88C3"/>
</g>
</svg>
