<svg width="24" height="24" viewBox="0 0 24 24" fill="none" xmlns="http://www.w3.org/2000/svg">
  <g id="globe">
    <path id="union-1" d="M21 12C21 16.9706 16.9706 21 12 21M21 12C21 7.02944 16.9706 3 12 3M21 12H3M12 21C7.02944 21 3 16.9706 3 12M12 21C10.2232 19.3691 9 15.9517 9 12C9 8.04831 10.2232 4.63094 12 3M12 21C13.7768 19.3691 15 15.9517 15 12C15 8.04831 13.7768 4.63094 12 3M3 12C3 7.02944 7.02944 3 12 3" 
      stroke="currentColor" stroke-width="2" stroke-linecap="round" stroke-linejoin="round" />
  </g>
</svg>
