<svg width="32" height="32" viewBox="0 0 32 32" fill="none" xmlns="http://www.w3.org/2000/svg">
<g id="TikTok">
<path id="Subtract" fill-rule="evenodd" clip-rule="evenodd" d="M16 32C24.8366 32 32 24.8366 32 16C32 7.16344 24.8366 0 16 0C7.16344 0 0 7.16344 0 16C0 24.8366 7.16344 32 16 32ZM16.4692 5.33333H20.0645C20.0645 8.0541 22.1848 10.2802 24.8889 10.3729V14.0213C23.1373 13.9903 21.478 13.4029 20.1259 12.4135V19.8647C20.1259 23.6058 17.1145 26.6667 13.3963 26.6667C9.67809 26.6667 6.66667 23.6367 6.66667 19.8647C6.66667 16.1237 9.61664 13.1246 13.2734 13.0628V16.7111C11.614 16.7729 10.2619 18.1643 10.2619 19.8647C10.2619 21.5961 11.6447 23.0184 13.3656 23.0184C15.0864 23.0184 16.4692 21.5961 16.4692 19.8647V5.33333Z" fill="#00121C"/>
</g>
</svg>
