<svg width="17" height="18" viewBox="0 0 17 18" fill="none" xmlns="http://www.w3.org/2000/svg">
<g id="twemoji:flag-united-states">
<path id="Vector" d="M16.7379 3.5C16.4107 2.9045 15.8086 2.5 15.1111 2.5H8.5V3.5H16.7379ZM0 12.5H17V13.5H0V12.5ZM8.5 8.5H17V9.5H8.5V8.5ZM8.5 6.5H17V7.5H8.5V6.5ZM0 10.5H17V11.5H0V10.5ZM1.88889 15.5H15.1111C15.8086 15.5 16.4107 15.0955 16.7379 14.5H0.262083C0.589333 15.0955 1.19142 15.5 1.88889 15.5ZM8.5 4.5H17V5.5H8.5V4.5Z" fill="#B22334"/>
<path id="Vector_2" d="M0.0321111 13.8395C0.0399815 13.8862 0.0492685 13.9323 0.0599722 13.978C0.0725648 14.028 0.0870463 14.0773 0.103417 14.126C0.145444 14.2555 0.196444 14.3805 0.260667 14.4975L0.262083 14.5H16.7379L16.7389 14.498C16.8029 14.3805 16.8554 14.2563 16.8956 14.1275C16.9263 14.0335 16.9503 13.9373 16.9674 13.8395C16.9868 13.7295 17 13.6165 17 13.5H0C0 13.6165 0.0132222 13.729 0.0321111 13.8395ZM0 11.5H17V12.5H0V11.5ZM0 9.5V10.5H17V9.5H8.5H0ZM8.5 7.5H17V8.5H8.5V7.5ZM8.5 5.5H17V6.5H8.5V5.5ZM0.0604444 4.022C0.07225 3.971 0.0887778 3.9225 0.103889 3.8735C0.0875952 3.92239 0.0731028 3.97192 0.0604444 4.022ZM8.5 4.5H17C17 4.3835 16.9868 4.2705 16.9674 4.16C16.9509 4.06205 16.9267 3.96572 16.8952 3.872C16.8549 3.74265 16.8022 3.61801 16.7379 3.5H8.5V4.5Z" fill="#EEEEEE"/>
<path id="Vector_3" d="M8.5 2.5H1.88889C1.38792 2.5 0.907478 2.71071 0.553243 3.08579C0.199007 3.46086 0 3.96957 0 4.5L0 9.5H8.5V2.5Z" fill="#3C3B6E"/>
<path id="Vector_4" d="M0.945312 3.863L1.23715 4.0875L1.1257 4.45L1.41706 4.226L1.7089 4.45L1.59745 4.0875L1.88928 3.863H1.52851L1.41706 3.5L1.30609 3.863H0.945312ZM1.88976 4.863L2.18159 5.0875L2.07015 5.45L2.36151 5.226L2.65334 5.45L2.5419 5.0875L2.83373 4.863H2.47295L2.36151 4.5L2.25053 4.863H1.88976ZM3.77865 4.863L4.07048 5.0875L3.95903 5.45L4.2504 5.226L4.54223 5.45L4.43078 5.0875L4.72262 4.863H4.36184L4.2504 4.5L4.13942 4.863H3.77865ZM5.66753 4.863L5.95937 5.0875L5.84792 5.45L6.13928 5.226L6.43112 5.45L6.31967 5.0875L6.61151 4.863H6.25073L6.13928 4.5L6.02831 4.863H5.66753ZM1.88976 6.863L2.18159 7.0875L2.07015 7.45L2.36151 7.226L2.65334 7.45L2.5419 7.0875L2.83373 6.863H2.47295L2.36151 6.5L2.25053 6.863H1.88976ZM3.77865 6.863L4.07048 7.0875L3.95903 7.45L4.2504 7.226L4.54223 7.45L4.43078 7.0875L4.72262 6.863H4.36184L4.2504 6.5L4.13942 6.863H3.77865ZM5.66753 6.863L5.95937 7.0875L5.84792 7.45L6.13928 7.226L6.43112 7.45L6.31967 7.0875L6.61151 6.863H6.25073L6.13928 6.5L6.02831 6.863H5.66753ZM2.8342 3.863L3.12603 4.0875L3.01459 4.45L3.30595 4.226L3.59778 4.45L3.48634 4.0875L3.77817 3.863H3.4174L3.30595 3.5L3.19498 3.863H2.8342ZM4.72309 3.863L5.01492 4.0875L4.90348 4.45L5.19484 4.226L5.48667 4.45L5.37523 4.0875L5.66706 3.863H5.30628L5.19484 3.5L5.08387 3.863H4.72309ZM6.61198 3.863L6.90381 4.0875L6.79237 4.45L7.08373 4.226L7.37556 4.45L7.26412 4.0875L7.55595 3.863H7.19517L7.08373 3.5L6.97276 3.863H6.61198ZM0.945312 5.863L1.23715 6.0875L1.1257 6.45L1.41706 6.226L1.7089 6.45L1.59745 6.0875L1.88928 5.863H1.52851L1.41706 5.5L1.30609 5.863H0.945312ZM3.01459 6.45L3.30595 6.226L3.59778 6.45L3.48634 6.0875L3.77817 5.863H3.4174L3.30595 5.5L3.19498 5.863H2.8342L3.12603 6.0875L3.01459 6.45ZM4.72309 5.863L5.01492 6.0875L4.90348 6.45L5.19484 6.226L5.48667 6.45L5.37523 6.0875L5.66706 5.863H5.30628L5.19484 5.5L5.08387 5.863H4.72309ZM6.61198 5.863L6.90381 6.0875L6.79237 6.45L7.08373 6.226L7.37556 6.45L7.26412 6.0875L7.55595 5.863H7.19517L7.08373 5.5L6.97276 5.863H6.61198ZM0.945312 7.863L1.23715 8.0875L1.1257 8.45L1.41706 8.226L1.7089 8.45L1.59745 8.0875L1.88928 7.863H1.52851L1.41706 7.5L1.30609 7.863H0.945312ZM3.01459 8.45L3.30595 8.226L3.59778 8.45L3.48634 8.0875L3.77817 7.863H3.4174L3.30595 7.5L3.19498 7.863H2.8342L3.12603 8.0875L3.01459 8.45ZM4.72309 7.863L5.01492 8.0875L4.90348 8.45L5.19484 8.226L5.48667 8.45L5.37523 8.0875L5.66706 7.863H5.30628L5.19484 7.5L5.08387 7.863H4.72309ZM6.61198 7.863L6.90381 8.0875L6.79237 8.45L7.08373 8.226L7.37556 8.45L7.26412 8.0875L7.55595 7.863H7.19517L7.08373 7.5L6.97276 7.863H6.61198Z" fill="white"/>
</g>
</svg>
