<svg width="32" height="32" viewBox="0 0 32 32" fill="none" xmlns="http://www.w3.org/2000/svg">
<g id="Icon/redes sociais" clip-path="url(#clip0_1985_1128)">
<path id="Vector" d="M14.2928 0.11741C8.67109 0.704077 3.64794 4.4052 1.36442 9.64274C-0.107152 13.0241 -0.352059 16.9174 0.692848 20.5016C1.98351 24.9707 5.32218 28.7465 9.64218 30.635C13.0235 32.1065 16.9168 32.3514 20.5013 31.3065C25.8662 29.7599 30.0904 25.355 31.4771 19.8825C33.642 11.3067 28.3302 2.5381 19.7328 0.490744C17.8444 0.0427438 16.1813 -0.0748029 14.2928 0.11741ZM14.5062 10.0267C15.8711 11.8401 17.0235 13.3334 17.0662 13.3334C17.1088 13.3334 18.5279 11.8401 20.2022 10.0267L23.2635 6.72008H25.0022L24.6288 7.11517C24.4155 7.33832 23.0288 8.84253 21.5462 10.4534C20.0635 12.0641 18.6129 13.6316 18.3244 13.9201L17.8128 14.4641L21.8128 19.7867C24.0102 22.7201 25.8128 25.1516 25.8128 25.1952C25.8128 25.2485 24.5013 25.2801 22.9111 25.2801L19.9995 25.2694L17.2902 21.6427C15.4235 19.1361 14.5488 18.0581 14.4635 18.1227C14.3995 18.1761 12.8844 19.8085 11.0928 21.7494L7.83952 25.2801H7.01776C6.55951 25.2801 6.18618 25.2583 6.18618 25.2267C6.18618 25.1952 7.88218 23.3383 9.95109 21.1094C12.0104 18.8801 13.7171 17.0134 13.7378 16.9818C13.7488 16.9383 12.0528 14.6241 9.97285 11.8401C7.89285 9.06674 6.18618 6.77341 6.18618 6.75165C6.18618 6.73096 7.49776 6.72008 9.10885 6.72008H12.0311L14.5062 10.0267Z" fill="#00121C"/>
<path id="Vector_2" d="M8.82175 8.14933C8.8642 8.224 11.5516 11.8293 14.7733 16.1382L20.64 23.9891L21.9516 24C22.7624 24 23.2533 23.9573 23.2316 23.8933C23.2217 23.84 20.5442 20.2351 17.3017 15.8933L11.3916 8H10.0693C8.97108 8 8.74665 8.02176 8.82175 8.14933Z" fill="#00121C"/>
</g>
<defs>
<clipPath id="clip0_1985_1128">
<rect width="32" height="32" fill="white"/>
</clipPath>
</defs>
</svg>
