<svg width="32" height="32" viewBox="0 0 32 32" fill="none" xmlns="http://www.w3.org/2000/svg">
<g id="Youtube">
<path id="Subtract" fill-rule="evenodd" clip-rule="evenodd" d="M16 0C7.16344 0 0 7.16344 0 16C0 24.8366 7.16344 32 16 32C24.8366 32 32 24.8366 32 16C32 7.16344 24.8366 0 16 0ZM22.6672 10.4997C23.4016 10.7012 23.9799 11.2949 24.1762 12.0489C24.5328 13.4155 24.5328 16.2668 24.5328 16.2668C24.5328 16.2668 24.5328 19.118 24.1762 20.4847C23.9799 21.2387 23.4016 21.8324 22.6672 22.034C21.3364 22.4001 15.9995 22.4001 15.9995 22.4001C15.9995 22.4001 10.6626 22.4001 9.33165 22.034C8.5973 21.8324 8.01897 21.2387 7.8227 20.4847C7.46615 19.118 7.46615 16.2668 7.46615 16.2668C7.46615 16.2668 7.46615 13.4155 7.8227 12.0489C8.01897 11.2949 8.5973 10.7012 9.33165 10.4997C10.6626 10.1335 15.9995 10.1335 15.9995 10.1335C15.9995 10.1335 21.3364 10.1335 22.6672 10.4997Z" fill="#00121C"/>
<path id="Path" d="M14.3994 19.1998V13.8665L18.6661 16.5332L14.3994 19.1998Z" fill="#000F0E"/>
</g>
</svg>
