<svg width="66" height="19" viewBox="0 0 66 19" fill="none" xmlns="http://www.w3.org/2000/svg">
<path d="M0 9.11499C0 12.5851 2.64224 14.9268 6.34567 14.9268C6.888 14.9268 7.52023 14.8844 8.21987 14.7988V11.733C7.67853 11.7966 7.15868 11.8399 6.75218 11.8399C4.67473 11.8399 3.56761 10.7114 3.56761 9.11499C3.56761 7.51856 4.67473 6.36891 6.75218 6.36891C7.15868 6.36891 7.67755 6.41128 8.21987 6.47485V3.43029C7.52023 3.34554 6.888 3.30225 6.34567 3.30225C2.64224 3.30225 0 5.64393 0 9.11407V9.11499Z" fill="#82FF83"/>
<path d="M14.9283 11.8809C13.2798 11.8809 12.0603 10.7949 12.0603 9.09156C12.0603 7.38827 13.2798 6.3031 14.9283 6.3031C16.5542 6.3031 17.7513 7.38919 17.7513 9.09156C17.7513 10.7949 16.5542 11.8809 14.9283 11.8809ZM17.9096 4.47268C17.0966 3.66387 15.7872 3.23828 14.4543 3.23828C11.2248 3.23828 8.49268 5.62234 8.49268 9.09248C8.49268 12.5626 11.2248 14.9476 14.4543 14.9476C15.7872 14.9476 17.0966 14.522 17.9096 13.7132L17.932 14.7348H21.0941V3.452H17.932L17.9096 4.47361V4.47268Z" fill="#82FF83"/>
<path d="M28.6131 11.8828C26.9872 11.8828 25.7901 10.7967 25.7901 9.0934C25.7901 7.39011 26.9872 6.30494 28.6131 6.30494C30.2616 6.30494 31.4811 7.39103 31.4811 9.0934C31.4811 10.7967 30.2626 11.8828 28.6131 11.8828ZM29.0871 3.2392C27.7552 3.2392 26.4448 3.6648 25.6318 4.47361L25.6094 3.452H22.4482V18.9926H26.0159V16.8849C26.0159 15.948 25.9934 14.9264 25.9484 13.9896C26.7614 14.6289 27.9125 14.9476 29.0871 14.9476C32.3166 14.9476 35.0487 12.5635 35.0487 9.09248C35.0487 5.62234 32.3166 3.23828 29.0871 3.23828V3.2392Z" fill="#82FF83"/>
<path d="M35.8833 14.7315H39.4509V3.44873H35.8833V14.7315Z" fill="#82FF83"/>
<path d="M63.8521 8.87175C63.0449 10.131 62.4674 11.4741 62.1841 12.9241C62.1196 13.2566 62.0795 13.5938 62.0297 13.9291C62.0082 14.0728 61.9124 14.1824 61.7658 14.187C61.4864 14.1953 61.2079 14.1898 60.9167 14.1898C60.8639 13.3331 60.8698 12.493 60.9626 11.6538C60.9665 11.6188 60.9802 11.581 60.9988 11.5497C61.6808 10.3899 62.6287 9.47513 63.8413 8.80358C63.855 8.79621 63.8687 8.79068 63.9048 8.77502C63.8814 8.81924 63.8687 8.84687 63.8521 8.87267V8.87175ZM57.4272 14.1843V8.47931C58.4523 10.1421 58.935 12.0443 58.8871 14.1843H57.4272ZM57.7575 7.70091C57.9412 6.65074 58.2344 5.63098 58.7093 4.6628C58.7875 4.50436 58.8734 4.34959 58.9565 4.19391C58.9614 4.1847 58.9731 4.17917 58.9731 4.1801C58.9291 4.62135 58.8764 5.06721 58.8422 5.51491C58.7875 6.23712 58.8021 6.95842 58.8656 7.67972C58.891 7.9616 58.9262 8.24257 58.9555 8.52353C58.9585 8.54841 58.9604 8.57696 58.9497 8.59815C58.8256 8.84595 58.6995 9.09283 58.5666 9.35261C58.5461 9.31484 58.5314 9.2872 58.5168 9.25957C58.2852 8.83674 58.0575 8.41299 57.8181 7.99385C57.7624 7.8962 57.739 7.81237 57.7575 7.70183V7.70091ZM65.0188 7.87133C64.9289 7.76447 64.7921 7.7396 64.6328 7.80408C63.3088 8.33561 62.1704 9.10204 61.2675 10.1679C61.2509 10.1881 61.2421 10.2148 61.2304 10.2388L61.202 10.2139C61.203 10.2029 61.204 10.1918 61.2069 10.1817C61.3164 9.78649 61.4248 9.39038 61.5372 8.99518C61.59 8.8091 61.5059 8.64974 61.3251 8.61105C61.161 8.57604 61.0232 8.66908 60.9626 8.85516C60.4242 10.4866 60.2307 12.1586 60.303 13.8609C60.3079 13.9678 60.3157 14.0747 60.3226 14.1852H59.4715C59.4715 14.152 59.4705 14.1262 59.4715 14.1005C59.5164 12.7785 59.3366 11.487 58.9057 10.2268C58.8901 10.1798 58.8988 10.1163 58.9174 10.0684C59.6395 8.2048 60.8444 6.67377 62.4987 5.45411C62.5241 5.43476 62.5525 5.42003 62.6052 5.38686C62.5642 5.45687 62.5398 5.49832 62.5143 5.53978C62.059 6.28963 61.6574 7.06436 61.3271 7.87133C61.3007 7.93581 61.2773 8.00766 61.2792 8.07491C61.2851 8.2048 61.3955 8.30337 61.5284 8.32087C61.6828 8.34021 61.7971 8.27113 61.8616 8.11268C62.186 7.31953 62.574 6.55494 63.0283 5.82166C63.2844 5.40713 63.5609 5.00364 63.8306 4.59647C63.9537 4.40947 63.8892 4.19115 63.6791 4.15246C63.5931 4.1368 63.4808 4.16259 63.4026 4.20681C61.8352 5.07734 60.5424 6.22146 59.5389 7.65392C59.5203 7.68064 59.4988 7.70459 59.4627 7.75065C59.4519 7.60602 59.4431 7.48811 59.4353 7.36928C59.3503 6.15145 59.4246 4.94284 59.6708 3.74437C59.7334 3.4413 59.8135 3.14191 59.8868 2.8416C59.9317 2.66012 59.8526 2.51089 59.6825 2.47036C59.5379 2.43627 59.4334 2.49523 59.3454 2.60209C58.4953 3.6283 57.9197 4.78348 57.5465 6.0317C57.4615 6.31451 57.3891 6.601 57.3158 6.88749C56.8791 4.51449 55.1534 3.17876 52.5932 3.17876C50.9897 3.17876 49.7477 3.73239 49.0471 4.60569C48.324 3.73239 47.082 3.17876 45.4795 3.17876C42.5207 3.17876 40.6699 4.98798 40.6699 8.13939V14.7388H44.2375V8.01135C44.2375 6.92526 44.8473 6.30806 45.7502 6.30806C46.6765 6.30806 47.2628 6.92526 47.2628 8.01135V14.7388H50.8314V8.01135C50.8314 6.92526 51.4187 6.30806 52.3441 6.30806C53.247 6.30806 53.8567 6.92526 53.8567 8.01135V14.7388H56.9299C56.9299 14.7434 56.9309 14.7481 56.9299 14.7536C58.5207 14.7536 60.1115 14.7536 61.7033 14.7527C62.1899 14.7527 62.571 14.4358 62.616 13.9954C62.6902 13.2787 62.8368 12.5759 63.0586 11.8859C63.4827 10.5658 64.1521 9.36182 65.0022 8.24441C65.1058 8.109 65.1087 7.98279 65.0169 7.87501L65.0188 7.87133Z" fill="#82FF83"/>
<path d="M35.8833 1.72448H39.4509V0H35.8833V1.72448Z" fill="white"/>
<path d="M46.4282 17.4175H46.7438V18.2567C46.7438 18.5948 47.0008 18.7367 47.2334 18.7367C47.3282 18.7367 47.4298 18.7173 47.5705 18.6446L47.4621 18.4152C47.4621 18.4152 47.3673 18.4778 47.2754 18.4778C47.1171 18.4778 47.0399 18.3912 47.0399 18.2429V17.4175H47.5461V17.166H47.0399V16.699H46.7438V17.166H46.4282V17.4175ZM50.1717 17.1264C49.6822 17.1264 49.3597 17.4848 49.3597 17.9315C49.3597 18.3857 49.7144 18.7367 50.2069 18.7367C50.6359 18.7367 50.8811 18.4354 50.8811 18.4354L50.6945 18.253C50.6945 18.253 50.5264 18.4787 50.2059 18.4787C49.9001 18.4787 49.6646 18.2632 49.647 18.032H50.9583C50.9622 17.9951 50.9623 17.9721 50.9623 17.9426C50.9623 17.4488 50.6241 17.1273 50.1707 17.1273L50.1717 17.1264ZM49.6548 17.7989C49.6753 17.6404 49.8199 17.3844 50.1717 17.3844C50.4981 17.3844 50.6642 17.6266 50.674 17.7989H49.6548ZM54.0813 18.2595C54.0813 18.2595 53.923 18.4787 53.6064 18.4787C53.2791 18.4787 53.0641 18.2337 53.0641 17.9315C53.0641 17.6303 53.2781 17.3844 53.6064 17.3844C53.8947 17.3844 54.053 17.5704 54.053 17.5704L54.2533 17.4009C54.2533 17.4009 54.0208 17.1255 53.6064 17.1255C53.1276 17.1255 52.769 17.4838 52.769 17.9306C52.769 18.382 53.1276 18.7357 53.6064 18.7357C54.0354 18.7357 54.2699 18.441 54.2699 18.441L54.0804 18.2586L54.0813 18.2595ZM56.9776 17.1264C56.6962 17.1264 56.5487 17.2849 56.4998 17.3521V16.1914H56.2037V18.6971H56.4998V17.6432C56.4998 17.6432 56.6405 17.3844 56.9034 17.3844C57.1213 17.3844 57.2942 17.4967 57.2942 17.7593V18.6971H57.5893V17.7123C57.5893 17.3346 57.3011 17.1264 56.9776 17.1264Z" fill="white"/>
</svg>
