<svg xmlns="http://www.w3.org/2000/svg" xmlns:xlink="http://www.w3.org/1999/xlink" width="1080" zoomAndPan="magnify" viewBox="0 0 810 809.999993" height="1080" preserveAspectRatio="xMidYMid meet" version="1.2"><g id="3c5e13cb01"><path style=" stroke:none;fill-rule:nonzero;fill:#29abe2;fill-opacity:1;" d="M 810 405 C 810 628.675781 628.675781 810 405 810 C 181.324219 810 0 628.675781 0 405 C 0 181.324219 181.324219 0 405 0 C 628.675781 0 810 181.324219 810 405 "/><path style=" stroke:none;fill-rule:nonzero;fill:#29abe2;fill-opacity:1;" d="M 809.234375 430.039062 L 649.15625 269.964844 L 614.890625 590.617188 L 159.3125 593.835938 L 374.320312 808.855469 C 384.453125 809.613281 394.679688 810 405 810 C 620.265625 810 796.300781 642.050781 809.234375 430.039062 "/><path style=" stroke:none;fill-rule:nonzero;fill:#259acc;fill-opacity:1;" d="M 405 810 C 394.679688 810 384.453125 809.613281 374.320312 808.855469 L 159.3125 593.835938 L 614.890625 590.617188 L 649.15625 269.964844 L 809.234375 430.039062 C 796.300781 642.050781 620.265625 810 405 810 "/><path style=" stroke:none;fill-rule:nonzero;fill:#000000;fill-opacity:1;" d="M 618.320312 334.359375 C 618.320312 336.523438 616.566406 338.28125 614.398438 338.28125 L 552.902344 338.28125 C 550.730469 338.28125 548.976562 336.523438 548.976562 334.359375 L 548.976562 297.960938 C 548.976562 295.796875 550.730469 294.035156 552.902344 294.035156 L 614.398438 294.035156 C 616.566406 294.035156 618.320312 295.796875 618.320312 297.960938 Z M 405.753906 571.070312 C 333.429688 571.070312 274.804688 512.4375 274.804688 440.121094 C 274.804688 367.796875 333.429688 309.167969 405.753906 309.167969 C 478.078125 309.167969 536.707031 367.796875 536.707031 440.121094 C 536.707031 512.4375 478.078125 571.070312 405.753906 571.070312 Z M 613.328125 254.207031 L 497.714844 254.207031 L 497.714844 231.152344 C 497.714844 213.207031 483.164062 198.644531 465.207031 198.644531 L 341.726562 198.644531 C 323.777344 198.644531 309.21875 213.207031 309.21875 231.152344 L 309.21875 254.207031 L 196.664062 254.207031 C 169.820312 254.207031 148.058594 275.96875 148.058594 302.820312 L 148.058594 562.734375 C 148.058594 589.578125 169.820312 611.355469 196.664062 611.355469 L 613.328125 611.355469 C 640.179688 611.355469 661.941406 589.578125 661.941406 562.734375 L 661.941406 302.820312 C 661.941406 275.96875 640.179688 254.207031 613.328125 254.207031 "/><path style=" stroke:none;fill-rule:nonzero;fill:#000000;fill-opacity:1;" d="M 406.113281 531.390625 C 355.703125 531.390625 314.84375 490.523438 314.84375 440.121094 C 314.84375 389.710938 355.703125 348.851562 406.113281 348.851562 C 456.515625 348.851562 497.378906 389.710938 497.378906 440.121094 C 497.378906 490.523438 456.515625 531.390625 406.113281 531.390625 Z M 405.109375 333.011719 C 345.953125 333.011719 297.996094 380.964844 297.996094 440.121094 C 297.996094 499.269531 345.953125 547.226562 405.109375 547.226562 C 464.257812 547.226562 512.210938 499.269531 512.210938 440.121094 C 512.210938 380.964844 464.257812 333.011719 405.109375 333.011719 "/></g></svg>