<svg xmlns="http://www.w3.org/2000/svg" xmlns:xlink="http://www.w3.org/1999/xlink" width="1080" zoomAndPan="magnify" viewBox="0 0 810 809.999993" height="1080" preserveAspectRatio="xMidYMid meet" version="1.2"><g id="06659c76a2"><path style=" stroke:none;fill-rule:nonzero;fill:#00bf63;fill-opacity:1;" d="M 405 773.953125 C 608.738281 773.953125 773.898438 608.796875 773.898438 405.058594 C 773.898438 201.320312 608.738281 36.160156 405 36.160156 C 201.265625 36.160156 36.105469 201.320312 36.105469 405.058594 C 36.105469 608.796875 201.265625 773.953125 405 773.953125 Z M 405 773.953125 "/><path style=" stroke:none;fill-rule:evenodd;fill:#000000;fill-opacity:1;" d="M 72.265625 405.058594 C 72.265625 221.292969 221.234375 72.320312 405 72.320312 C 588.765625 72.320312 737.738281 221.292969 737.738281 405.058594 C 737.738281 588.824219 588.765625 737.792969 405 737.792969 C 221.234375 737.792969 72.265625 588.824219 72.265625 405.058594 Z M 405 0 C 181.292969 0 -0.0546875 181.351562 -0.0546875 405.058594 C -0.0546875 628.761719 181.292969 810.117188 405 810.117188 C 628.710938 810.117188 810.058594 628.761719 810.058594 405.058594 C 810.058594 181.351562 628.710938 0 405 0 Z M 221.230469 322.652344 C 365.183594 295.164062 475.382812 309.992188 612.394531 382.902344 C 633.546875 394.160156 659.824219 386.136719 671.085938 364.980469 C 682.34375 343.824219 674.320312 317.546875 653.160156 306.289062 C 498.507812 223.988281 368.164062 206.242188 204.957031 237.40625 C 181.414062 241.902344 165.976562 264.628906 170.472656 288.167969 C 174.964844 311.707031 197.691406 327.144531 221.230469 322.652344 Z M 448.457031 612.058594 C 385.746094 583.414062 343.320312 575.34375 278.089844 583.375 C 254.304688 586.300781 232.648438 569.390625 229.71875 545.605469 C 226.792969 521.820312 243.699219 500.164062 267.484375 497.234375 C 350.730469 486.988281 409.257812 498.742188 484.515625 533.117188 C 506.316406 543.074219 515.914062 568.816406 505.957031 590.617188 C 496 612.414062 470.257812 622.015625 448.457031 612.058594 Z M 252.769531 449.105469 C 354.554688 428.871094 424.757812 447.492188 542.234375 504.234375 C 563.8125 514.65625 589.753906 505.613281 600.179688 484.035156 C 610.601562 462.453125 601.558594 436.511719 579.976562 426.085938 C 454.742188 365.59375 364.136719 338.484375 235.851562 363.984375 C 212.34375 368.65625 197.078125 391.496094 201.75 415.003906 C 206.421875 438.507812 229.265625 453.777344 252.769531 449.105469 Z M 252.769531 449.105469 "/></g></svg>